<svg width="275" height="61" viewBox="0 0 275 61" fill="none" xmlns="http://www.w3.org/2000/svg">
<path d="M10.1381 8.61569C6.75981 8.70019 3.37834 8.78782 0 8.87857V0.0844982C10 0.0532026 20 0.0250365 30 0C29.9937 2.72272 29.9874 5.44231 29.978 8.16503C26.5965 8.23388 23.2151 8.30899 19.8367 8.38723C19.8053 25.1054 19.7739 41.8235 19.7394 58.5448C16.5181 59.0079 13.2967 59.493 10.0816 60C10.1005 42.8719 10.1193 25.7469 10.1381 8.61882V8.61569Z" fill="#61B7DB"/>
<path d="M42.6886 53.4327C40.2173 51.2869 38.9878 47.9554 39.0001 43.4754C39.0278 33.6725 39.0525 23.8696 39.0802 14.0668C39.0925 9.58985 40.3436 6.09786 42.8334 3.64945C45.3202 1.19487 48.904 0 53.5816 0C58.2593 0 61.8338 1.18252 64.3083 3.50125C66.7827 5.82307 68.0153 9.07732 67.9999 13.3134C67.969 22.5914 67.9413 31.8694 67.9105 41.1474C67.8982 45.3835 66.644 48.7458 64.1511 51.2899C61.6582 53.8372 58.0744 55.3531 53.3998 55.8533C48.7252 56.3535 45.1538 55.5816 42.6825 53.4296L42.6886 53.4327ZM58.3826 42.3546C58.4134 32.5672 58.4442 22.7798 58.4781 12.9923C58.4904 9.46017 56.8511 7.71572 53.5601 7.75895C50.269 7.80526 48.6174 9.63307 48.6081 13.2393C48.5773 23.212 48.5465 33.1878 48.5157 43.1605C48.5034 46.7698 50.1427 48.4062 53.4337 48.0974C56.7247 47.7918 58.3764 45.8899 58.3857 42.3546H58.3826Z" fill="#61B7DB"/>
<path d="M79.8245 51.1752C77.2611 49.0225 75.9874 45.7981 76.0001 41.5241C76.0288 32.1621 76.0574 22.8001 76.0893 13.4381C76.102 9.16403 77.3948 5.83594 79.9678 3.49465C82.5408 1.15336 86.2442 0 91.078 0C95.9119 0 99.6058 1.14393 102.169 3.4098C104.729 5.67881 106.01 8.87176 106 13.0107C105.984 22.0804 105.965 31.1533 105.949 40.223C105.943 44.3651 104.647 47.6052 102.07 49.981C99.4911 52.3569 95.7782 53.6705 90.9347 53.9502C86.0913 54.2299 82.3847 53.3343 79.8245 51.1784V51.1752ZM96.0807 41.0716C96.103 31.5807 96.1252 22.0867 96.1507 12.5958C96.1603 9.17031 94.463 7.46698 91.0589 7.49213C87.658 7.51727 85.9512 9.26774 85.9417 12.7372C85.913 22.3318 85.8875 31.9295 85.8589 41.5241C85.8493 44.9936 87.5466 46.6278 90.957 46.455C94.3643 46.2852 96.0743 44.5002 96.0839 41.0716H96.0807Z" fill="#61B7DB"/>
<path d="M123.809 7.28765C120.539 7.29701 117.27 7.31261 114 7.3282C114.003 4.889 114.009 2.44667 114.012 0.00746205C123.676 0.00122367 133.336 -0.00189552 143 0.00122367C143 2.42484 143 4.84845 143 7.27206C139.73 7.26894 136.461 7.26582 133.191 7.27206C133.188 21.8075 133.182 36.346 133.179 50.8815C130.042 50.9002 126.903 50.9407 123.767 51C123.782 36.4303 123.794 21.8605 123.809 7.28765Z" fill="#61B7DB"/>
<path d="M152.003 0C155.244 0 158.482 -2.90706e-09 161.723 0.00312143C161.733 6.94832 161.742 13.8935 161.752 20.8387C165.232 20.8793 168.712 20.9292 172.192 20.9885C172.176 13.9965 172.163 7.0045 172.148 0.0093643C175.389 0.0093643 178.627 0.0156072 181.868 0.0187286C181.912 17.3458 181.956 34.6729 182 52C178.753 51.8252 175.502 51.6691 172.255 51.5349C172.239 43.8062 172.223 36.0776 172.207 28.3489C168.727 28.2677 165.244 28.2022 161.761 28.1491C161.771 35.8247 161.783 43.5003 161.793 51.1791C158.542 51.0917 155.291 51.023 152.038 50.9793C152.025 33.9862 152.013 16.9962 152 0.00312143L152.003 0Z" fill="#61B7DB"/>
<path d="M190 0.00311636C198.324 0.0124655 206.651 0.0280473 214.976 0.0436291C214.985 2.63333 214.991 5.21991 215 7.80961C209.821 7.72547 204.642 7.65067 199.463 7.58523C199.478 12.506 199.494 17.4267 199.509 22.3443C203.573 22.4846 207.638 22.6373 211.702 22.8087C211.711 25.3828 211.717 27.9538 211.727 30.5279C207.662 30.3035 203.598 30.0978 199.533 29.914C199.558 37.6083 199.579 45.3057 199.604 53C196.452 52.7507 193.301 52.5232 190.147 52.3144C190.098 34.8752 190.052 17.4392 190.003 0L190 0.00311636Z" fill="#61B7DB"/>
<path d="M224 0C226.951 0.00624268 229.9 0.0124853 232.851 0.0218494C232.9 18.6812 232.951 37.3406 233 56C230.054 55.6192 227.109 55.2571 224.16 54.9169C224.106 36.6102 224.054 18.3067 224 0Z" fill="#61B7DB"/>
<path d="M252.869 28.1193C249.373 18.5099 245.871 9.15124 242.363 0C245.702 0.00928745 249.038 0.0154791 252.377 0.0247665C254.522 6.21331 256.66 12.4947 258.798 18.8814C258.856 18.8814 258.912 18.8876 258.97 18.8907C261.145 12.7176 263.32 6.44549 265.501 0.0650122C268.493 0.0742996 271.486 0.0835871 274.481 0.0928745C271 9.98711 267.529 19.5934 264.07 28.9521C267.725 39.32 271.372 49.9882 275 61C271.685 60.4242 268.371 59.8731 265.05 59.3468C262.752 52.0933 260.451 44.976 258.144 37.9857C258.085 37.9795 258.03 37.9733 257.972 37.9702C255.631 44.5055 253.293 50.9262 250.955 57.2479C247.972 56.833 244.986 56.4368 242 56.0622C245.622 46.9667 249.244 37.6668 252.872 28.1224L252.869 28.1193Z" fill="#61B7DB"/>
</svg>
