<svg width="483" height="345" viewBox="0 0 483 345" fill="none" xmlns="http://www.w3.org/2000/svg">
<path d="M158.028 219.529V87.9688H123.328" stroke="#979797" stroke-width="2" stroke-linecap="round"/>
<path d="M163.906 169.125H187.094" stroke="#979797" stroke-width="2" stroke-linecap="square"/>
<path d="M100.141 116.953C116.148 116.953 129.125 103.976 129.125 87.9688C129.125 71.9611 116.148 58.9844 100.141 58.9844C84.133 58.9844 71.1562 71.9611 71.1562 87.9688C71.1562 103.976 84.133 116.953 100.141 116.953Z" fill="#8BCAE5"/>
<path d="M309.467 306.612C315.141 309.58 322.146 307.385 325.113 301.711C328.08 296.037 325.886 289.032 320.212 286.065L184.111 215.728H111.564L46.7439 121.755C43.0816 116.502 35.8549 115.213 30.6026 118.876C25.3502 122.538 24.0612 129.765 27.7235 135.017L100.059 238.817H179.01L309.467 306.612Z" fill="#004D70"/>
<path d="M245.062 151.734H187.094V186.516H245.062V151.734Z" fill="#D8D8D8"/>
<path d="M204.484 169.125V198.109M227.672 169.125V198.109" stroke="#979797" stroke-width="2" stroke-linecap="square"/>
<path fill-rule="evenodd" clip-rule="evenodd" d="M100.141 238.688H169.703L146.846 261.939L169.703 296.656H129.125L100.141 238.688Z" fill="#979797"/>
<path fill-rule="evenodd" clip-rule="evenodd" d="M100.141 296.656H169.703V337.234H47.9688L100.141 296.656Z" fill="#D8D8D8"/>
<path d="M1.59375 343.031H343.658" stroke="#979797" stroke-width="2" stroke-linecap="square"/>
<path d="M418.194 159.749L411.974 165.97L405.89 172.054" stroke="#979797" stroke-width="2" stroke-linecap="round"/>
<path d="M425.953 163.094C432.417 163.094 437.656 157.854 437.656 151.391C437.656 144.927 432.417 139.688 425.953 139.688C419.49 139.688 414.25 144.927 414.25 151.391C414.25 157.854 419.49 163.094 425.953 163.094Z" fill="#D8D8D8"/>
<path fill-rule="evenodd" clip-rule="evenodd" d="M398.944 170.421L407.213 178.69L349.285 236.617L341.016 228.348L398.944 170.421Z" fill="#004D70"/>
<path d="M413.082 172.843L404.813 164.574L398.902 170.485L407.171 178.754L413.082 172.843Z" fill="#8BCAE5"/>
<path fill-rule="evenodd" clip-rule="evenodd" d="M279.86 0C264.882 0 255 17.2016 255 38.4208C255 59.64 264.882 126.562 279.86 126.562C288.598 126.562 289.591 70.9876 301.331 70.9373C315.331 70.9876 314.064 126.562 322.801 126.562C337.78 126.562 347.662 59.64 347.662 38.4208C347.662 17.2016 337.78 0 322.801 0C315.645 0 308.488 6.78013 301.331 6.78013C294.174 6.78013 287.017 0 279.86 0Z" fill="#8BCAE5"/>
<path d="M283.753 10.5469C274.045 10.5469 266.175 18.4169 266.175 28.125" stroke="#F1F1F1" stroke-width="5" stroke-linecap="round"/>
<path d="M467.632 151.09C469.983 151.09 472.335 151.987 474.129 153.781C477.717 157.369 477.717 163.187 474.129 166.775C470.541 170.362 464.724 170.362 461.136 166.775L455.437 172.473L449.866 178.044" stroke="#979797" stroke-width="2" stroke-linecap="round"/>
<path fill-rule="evenodd" clip-rule="evenodd" d="M445.065 174.748L452.68 182.363L399.625 235.418L392.01 227.803L445.065 174.748Z" fill="#004D70"/>
<path d="M458.081 176.936L450.466 169.321L445.052 174.735L452.667 182.35L458.081 176.936Z" fill="#8BCAE5"/>
</svg>
