<svg width="493" height="401" viewBox="0 0 493 401" fill="none" xmlns="http://www.w3.org/2000/svg">
<path d="M168.028 219.529V87.9688H133.328" stroke="#979797" stroke-width="2" stroke-linecap="round"/>
<path d="M173.906 169.125H197.094" stroke="#979797" stroke-width="2" stroke-linecap="square"/>
<path d="M110.141 116.953C126.148 116.953 139.125 103.976 139.125 87.9688C139.125 71.9611 126.148 58.9844 110.141 58.9844C94.133 58.9844 81.1562 71.9611 81.1562 87.9688C81.1562 103.976 94.133 116.953 110.141 116.953Z" fill="#8BCAE5"/>
<path d="M319.467 306.612C325.141 309.58 332.146 307.385 335.113 301.711C338.08 296.037 335.886 289.032 330.212 286.065L194.111 215.728H121.564L56.7439 121.755C53.0816 116.502 45.8549 115.213 40.6026 118.876C35.3502 122.538 34.0612 129.765 37.7235 135.017L110.059 238.817H189.01L319.467 306.612Z" fill="#004D70"/>
<path d="M255.062 151.734H197.094V186.516H255.062V151.734Z" fill="#D8D8D8"/>
<path d="M214.484 169.125V198.109M237.672 169.125V198.109" stroke="#979797" stroke-width="2" stroke-linecap="square"/>
<path fill-rule="evenodd" clip-rule="evenodd" d="M110.141 238.688H179.703L156.846 261.939L179.703 296.656H139.125L110.141 238.688Z" fill="#979797"/>
<path fill-rule="evenodd" clip-rule="evenodd" d="M110.141 296.656H179.703V337.234H57.9688L110.141 296.656Z" fill="#D8D8D8"/>
<path d="M11.5938 343.031H353.658" stroke="#979797" stroke-width="2" stroke-linecap="square"/>
<path d="M428.194 159.749L421.974 165.97L415.89 172.054" stroke="#979797" stroke-width="2" stroke-linecap="round"/>
<path d="M435.953 163.094C442.417 163.094 447.656 157.854 447.656 151.391C447.656 144.927 442.417 139.688 435.953 139.688C429.49 139.688 424.25 144.927 424.25 151.391C424.25 157.854 429.49 163.094 435.953 163.094Z" fill="#D8D8D8"/>
<path fill-rule="evenodd" clip-rule="evenodd" d="M408.944 170.421L417.213 178.69L359.285 236.617L351.016 228.348L408.944 170.421Z" fill="#004D70"/>
<path d="M423.082 172.843L414.813 164.574L408.902 170.485L417.171 178.754L423.082 172.843Z" fill="#8BCAE5"/>
<path fill-rule="evenodd" clip-rule="evenodd" d="M289.86 0C274.882 0 265 17.2016 265 38.4208C265 59.64 274.882 126.562 289.86 126.562C298.598 126.562 299.591 70.9876 311.331 70.9373C325.331 70.9876 324.064 126.562 332.801 126.562C347.78 126.562 357.662 59.64 357.662 38.4208C357.662 17.2016 347.78 0 332.801 0C325.645 0 318.488 6.78013 311.331 6.78013C304.174 6.78013 297.017 0 289.86 0Z" fill="#8BCAE5"/>
<path d="M293.753 10.5469C284.045 10.5469 276.175 18.4169 276.175 28.125" stroke="#F1F1F1" stroke-width="5" stroke-linecap="round"/>
<path d="M477.632 151.09C479.983 151.09 482.335 151.987 484.129 153.781C487.717 157.369 487.717 163.187 484.129 166.775C480.541 170.362 474.724 170.362 471.136 166.775L465.437 172.473L459.866 178.044" stroke="#979797" stroke-width="2" stroke-linecap="round"/>
<path fill-rule="evenodd" clip-rule="evenodd" d="M455.065 174.748L462.68 182.363L409.625 235.418L402.01 227.803L455.065 174.748Z" fill="#004D70"/>
<path d="M468.081 176.936L460.466 169.321L455.052 174.735L462.667 182.35L468.081 176.936Z" fill="#8BCAE5"/>
</svg>
